#!OML:ASF F:\VICON\USERDATA\INSTALL\rory3\rory3.ASF
:FULLY-SPECIFIED
:DEGREES
515
root 0.7555 17.3887 30.7963 1.84298 6.52437 4.07002
lowerback 5.53093 -2.02835 -9.24516
upperback 0.146347 -3.20374 3.16769
thorax -2.26501 -1.49168 8.7906
lowerneck -16.7412 -4.43736 -13.3381
upperneck 34.9194 -3.79856 4.50695
head 15.509 -2.76659 3.55408
rclavicle 4.81059e-014 -1.98785e-014
rhumerus -42.4744 -26.8379 -61.0059
rradius 21.2569
rwrist -2.49145
rhand -10.1605 17.4572
rfingers 7.12502
rthumb 15.8291 -11.9157
lclavicle 4.81059e-014 -1.98785e-014
lhumerus -34.9981 6.60882 81.1616
lradius 40.2784
lwrist -2.41246
lhand -2.8262 32.1377
lfingers 7.12502
lthumb 22.8808 60.8003
rfemur -27.955 -1.53657 16.328
rtibia 31.4571
rfoot -4.88126 -5.54564
rtoes 18.1057
lfemur 12.3208 -6.4914 -24.9615
ltibia 28.092
lfoot 3.28829 -9.22855
ltoes -17.6288
516
root 0.734505 17.3998 30.9972 1.84882 6.4728 3.96542
lowerback 5.52803 -1.95699 -9.178
upperback -0.0327124 -3.10791 3.20763
thorax -2.47436 -1.42475 8.79655
lowerneck -17.955 -4.40846 -12.7111
upperneck 36.1113 -3.57521 3.92525
head 16.3338 -2.7012 3.25796
rclavicle -3.56818e-014 4.77083e-015
rhumerus -42.8272 -26.5602 -60.9039
rradius 21.3748
rwrist -2.97989
rhand -10.3877 16.8712
rfingers 7.12502
rthumb 15.6103 -12.5189
lclavicle -3.56818e-014 4.77083e-015
lhumerus -35.2117 6.62849 81.2929
lradius 39.3836
lwrist -2.44144
lhand -3.05757 32.0508
lfingers 7.12502
lthumb 22.6587 60.7407
rfemur -27.6754 -1.65119 16.6689
rtibia 32.1522
rfoot -5.15881 -5.1009
rtoes 19.7249
lfemur 11.2495 -6.24822 -24.5767
ltibia 30.2271
lfoot 6.33159 -9.45374
ltoes -15.7949
517
root 0.730031 17.4079 31.1991 1.76713 6.76701 4.60275
lowerback 5.6282 -2.00897 -9.65566
upperback -0.101408 -3.22644 2.97483
thorax -2.5657 -1.47056 8.83498
lowerneck -17.1682 -4.58226 -13.0842
upperneck 35.5417 -3.9147 4.1577
head 15.9171 -2.84776 3.34967
rclavicle 2.72335e-014 0
rhumerus -43.184 -26.3876 -60.9369
rradius 21.7048
rwrist -3.44855
rhand -10.5172 16.4374
rfingers 7.12502
rthumb 15.4856 -12.9624
lclavicle 2.72335e-014 0
lhumerus -35.4748 6.70232 81.3211
lradius 38.832
lwrist -2.48579
lhand -2.7167 32.3323
lfingers 7.12502
lthumb 22.9858 60.9818
rfemur -27.0377 -2.57742 16.1521
rtibia 32.7536
rfoot -5.46611 -4.26396
rtoes 20.6242
lfemur 10.1888 -6.38647 -25.1471
ltibia 32.4615
lfoot 10.0242 -9.23552
ltoes -11.2062
518
root 0.72558 17.4148 31.3829 1.64859 7.04084 4.84355
lowerback 5.89168 -1.99994 -9.66096
upperback -0.185612 -3.24749 2.80739
thorax -2.80798 -1.46346 8.67587
lowerneck -15.4725 -4.12032 -12.9436
upperneck 34.7337 -3.47033 4.02935
head 15.0612 -2.64248 3.34353
rclavicle 3.47873e-015 -7.15625e-015
rhumerus -43.6508 -26.1957 -61.0458
rradius 22.2133
rwrist -4.17703
rhand -10.5502 16.4039
rfingers 7.12502
rthumb 15.4538 -12.9983
lclavicle 3.47873e-015 -7.15625e-015
lhumerus -35.7718 6.61109 81.3773
lradius 38.4788
lwrist -2.49718
lhand -2.26627 32.5006
lfingers 7.12502
lthumb 23.418 61.0957
rfemur -26.3445 -3.28074 16.0218
rtibia 33.2725
rfoot -5.97916 -3.66297
rtoes 21.0978
lfemur 9.0002 -6.51913 -25.28
ltibia 34.6914
lfoot 13.7612 -9.14137
ltoes -8.21652
519
root 0.694075 17.4302 31.5737 1.46818 6.95157 3.92064
lowerback 5.68719 -1.89535 -8.88074
upperback 0.00846208 -3.02285 3.04451
thorax -2.56283 -1.3828 8.45026
lowerneck -16.6513 -4.67979 -13.3737
upperneck 34.9265 -4.26656 4.7787
head 15.5562 -2.9311 3.59281
rclavicle -1.10325e-014 -2.22639e-014
rhumerus -43.5634 -26.1412 -61.3044
rradius 22.5165
rwrist -4.72966
rhand -10.4189 16.6459
rfingers 7.12502
rthumb 15.5802 -12.7466
lclavicle -1.10325e-014 -2.22639e-014
lhumerus -35.7012 6.4889 81.5726
lradius 38.2722
lwrist -2.51789
lhand -1.90541 32.8952
lfingers 7.12502
lthumb 23.7641 61.4457
rfemur -25.6089 -2.41998 17.1757
rtibia 33.4635
rfoot -6.60031 -4.1836
rtoes 22.0283
lfemur 7.58085 -6.3422 -23.9422
ltibia 37.1273
lfoot 16.9424 -9.57103
ltoes -6.21644
520
root 0.68161 17.4482 31.7516 1.30799 7.20149 3.48422
lowerback 6.46557 -1.89244 -8.25868
upperback -0.398864 -3.04683 3.0873
thorax -3.45389 -1.33924 8.19654
lowerneck -17.4163 -4.63078 -12.7909
upperneck 35.9089 -4.06053 4.17039
head 16.1658 -2.87583 3.28542
rclavicle 1.07841e-014 -1.59028e-015
rhumerus -44.2416 -25.5602 -61.2788
rradius 22.836
rwrist -5.20088
rhand -10.3119 16.813
rfingers 7.12502
rthumb 15.6833 -12.5714
lclavicle 1.07841e-014 -1.59028e-015
lhumerus -36.7794 6.26241 81.6355
lradius 38.4491
lwrist -2.62462
lhand -1.42586 33.5571
lfingers 7.12502
lthumb 24.224 62.047
rfemur -24.762 -2.38956 17.7502
rtibia 33.44
rfoot -7.0279 -4.27108
rtoes 22.7958
lfemur 6.10942 -6.52857 -23.3126
ltibia 39.6556
lfoot 19.8732 -9.44973
ltoes -3.47452
521
root 0.607711 17.4688 31.9624 1.18741 6.65741 1.91114
lowerback 5.5465 -1.70954 -7.52021
upperback 0.0795044 -2.65513 3.6901
thorax -2.51501 -1.21816 8.32879
lowerneck -17.573 -4.98052 -13.2103
upperneck 35.3081 -4.53025 4.49579
head 15.9858 -3.06147 3.39251
rclavicle -2.16178e-014 -4.45278e-014
rhumerus -43.4833 -25.9162 -61.5532
rradius 22.8166
rwrist -5.29683
rhand -10.4235 16.998
rfingers 7.12502
rthumb 15.5758 -12.3948
lclavicle -2.16178e-014 -4.45278e-014
lhumerus -36.3044 6.28173 81.9292
lradius 38.1326
lwrist -2.73055
lhand -1.31305 33.7252
lfingers 7.12502
lthumb 24.3321 62.2007
rfemur -23.998 0.168597 19.748
rtibia 33.1097
rfoot -7.42057 -6.10376
rtoes 24.1638
lfemur 4.35293 -5.79264 -20.9493
ltibia 42.3509
lfoot 22.4688 -9.77743
ltoes -1.43005
522
root 0.630669 17.4803 32.1212 0.722815 7.37131 1.42478
lowerback 6.32121 -1.82439 -6.39468
upperback -0.0492745 -2.77824 3.65316
thorax -3.11474 -1.26187 7.6886
lowerneck -17.1393 -4.79339 -12.9835
upperneck 35.3291 -4.34507 4.37252
head 15.8556 -2.97416 3.34031
rclavicle -1.83379e-014 -3.57812e-014
rhumerus -43.7261 -25.5878 -61.667
rradius 22.9726
rwrist -5.79132
rhand -10.5548 17.1087
rfingers 7.12502
rthumb 15.4494 -12.2939
lclavicle -1.83379e-014 -3.57812e-014
lhumerus -36.4905 5.86027 82.1771
lradius 37.6177
lwrist -2.7648
lhand -1.25902 33.5321
lfingers 7.12502
lthumb 24.3839 62.0006
rfemur -22.6067 -1.30808 20.3345
rtibia 32.7387
rfoot -7.85189 -5.32133
rtoes 24.4457
lfemur 3.17232 -6.36876 -20.5327
ltibia 44.9157
lfoot 24.7976 -9.58084
ltoes 2.37461
523
root 0.578083 17.495 32.3198 0.552613 6.99087 0.209007
lowerback 6.39366 -1.59988 -5.61549
upperback -0.0883324 -2.4113 3.99521
thorax -3.27827 -1.07998 7.58319
lowerneck -16.2536 -4.93087 -13.6489
upperneck 34.521 -4.78301 5.26304
head 15.3554 -3.10888 3.74636
rclavicle -1.89839e-014 -5.56597e-015
rhumerus -43.8072 -24.9931 -62.1536
rradius 23.3685
rwrist -6.42904
rhand -10.5727 16.8741
rfingers 7.12502
rthumb 15.4321 -12.5298
lclavicle -1.89839e-014 -5.56597e-015
lhumerus -36.5219 5.55916 82.3364
lradius 37.1209
lwrist -3.10547
lhand -0.702225 33.4179
lfingers 7.12502
lthumb 24.9176 61.8136
rfemur -21.6337 0.293262 21.9619
rtibia 32.2361
rfoot -8.32931 -6.63421
rtoes 24.4579
lfemur 1.51008 -5.74294 -18.7106
ltibia 47.4531
lfoot 26.8786 -10.0601
ltoes 5.6466
524
root 0.563774 17.5114 32.5175 0.169959 7.04581 -0.700957
lowerback 6.5308 -1.54737 -4.68508
upperback 0.0882289 -2.26912 4.17472
thorax -3.22281 -1.02943 7.22679
lowerneck -15.2162 -4.96477 -14.0689
upperneck 33.5968 -5.01788 5.7549
head 14.7399 -3.18068 3.96782
rclavicle -1.4561e-014 -7.15625e-015
rhumerus -43.4099 -24.8469 -62.5423
rradius 23.2708
rwrist -6.49586
rhand -10.5694 16.985
rfingers 7.12502
rthumb 15.4353 -12.4187
lclavicle -1.4561e-014 -7.15625e-015
lhumerus -36.2801 5.411 82.491
lradius 36.4915
lwrist -3.62625
lhand -0.187768 33.1851
lfingers 7.12502
lthumb 25.4105 61.5116
rfemur -20.2806 0.294794 23.133
rtibia 31.6879
rfoot -8.74527 -6.74702
rtoes 24.6991
lfemur 0.171717 -5.56993 -17.5578
ltibia 50.0522
lfoot 28.0214 -10.208
ltoes 7.22142
525
root 0.57153 17.5295 32.7187 -0.269073 7.37186 -1.20577
lowerback 6.26503 -1.58949 -3.93974
upperback 0.556028 -2.26613 4.22084
thorax -2.61331 -1.07078 6.81839
lowerneck -13.8708 -5.44897 -15.1294
upperneck 31.8715 -5.95985 6.82452
head 13.8697 -3.54869 4.392
rclavicle -2.49475e-014 3.18055e-014
rhumerus -42.5367 -25.1014 -62.8523
rradius 22.8889
rwrist -6.06845
rhand -10.4919 17.6713
rfingers 7.12502
rthumb 15.5099 -11.7266
lclavicle -2.49475e-014 3.18055e-014
lhumerus -35.6517 5.25627 82.7663
lradius 35.9197
lwrist -4.02817
lhand 0.131479 32.8703
lfingers 7.12502
lthumb 25.7163 61.1529
rfemur -18.8312 -0.699006 23.7456
rtibia 31.2629
rfoot -9.20018 -6.12336
rtoes 24.5404
lfemur -0.923597 -5.68031 -17.0753
ltibia 52.4319
lfoot 28.1335 -9.75836
ltoes 8.70752
526
root 0.527431 17.5394 32.8192 0.0964111 6.93507 -2.80612
lowerback 6.22205 -1.34439 -2.65889
upperback 0.539698 -1.83238 4.71543
thorax -2.69381 -0.862101 6.57329
lowerneck -15.9176 -5.33795 -13.8491
upperneck 33.2707 -5.42011 5.48772
head 14.7864 -3.33763 3.72615
rclavicle -1.71452e-014 4.77083e-015
rhumerus -41.8808 -25.0315 -63.2279
rradius 23.0145
rwrist -5.74333
rhand -10.1486 18.1392
rfingers 7.12502
rthumb 15.8405 -11.2328
lclavicle -1.71452e-014 4.77083e-015
lhumerus -35.1458 5.0635 83.079
lradius 35.5086
lwrist -4.44074
lhand 0.537605 32.5354
lfingers 7.12502
lthumb 26.1052 60.7611
rfemur -18.8768 0.803334 25.796
rtibia 30.7541
rfoot -9.06361 -7.25382
rtoes 24.0755
lfemur -3.76546 -4.70672 -14.7
ltibia 55.0988
lfoot 27.755 -9.92152
ltoes 9.05047
527
root 0.55924 17.5545 32.9893 0.00699399 7.51577 -1.63193
lowerback 6.6322 -1.40134 -3.16364
upperback 0.102263 -1.95834 4.16302
thorax -3.36431 -0.89293 6.31488
lowerneck -15.2054 -5.20448 -13.7598
upperneck 33.7207 -5.38793 5.52248
head 14.8249 -3.33068 3.75371
rclavicle 2.60905e-014 -7.15625e-015
rhumerus -42.6066 -24.1008 -63.3727
rradius 23.3792
rwrist -5.94629
rhand -9.91792 18.0401
rfingers 7.12502
rthumb 16.0627 -11.3142
lclavicle 2.60905e-014 -7.15625e-015
lhumerus -36.0277 4.72433 83.1375
lradius 35.1406
lwrist -5.09352
lhand 0.960646 32.1208
lfingers 7.12502
lthumb 26.5102 60.2861
rfemur -17.7677 -1.12011 24.4272
rtibia 30.4468
rfoot -9.5388 -5.96558
rtoes 23.6462
lfemur -4.95561 -5.20385 -16.377
ltibia 57.1257
lfoot 26.2027 -8.93094
ltoes 8.52314
528
root 0.491007 17.5584 33.2056 -0.548887 6.70696 -2.75553
lowerback 5.35085 -0.972864 -2.96678
upperback 1.60408 -1.37517 4.68996
thorax -1.15659 -0.696138 6.63969
lowerneck -16.9538 -5.77817 -14.2747
upperneck 33.0237 -6.03034 6.2554
head 15.0358 -3.52339 3.99428
rclavicle 1.33186e-014 -3.18055e-015
rhumerus -39.8684 -25.0215 -64.2981
rradius 22.91
rwrist -5.52348
rhand -9.9769 18.0269
rfingers 7.12502
rthumb 16.0059 -11.3319
lclavicle 1.33186e-014 -3.18055e-015
lhumerus -33.6909 5.19956 83.5788
lradius 34.4135
lwrist -6.10597
lhand 1.27462 31.7264
lfingers 7.12502
lthumb 26.8107 59.846
rfemur -16.4224 1.0741 26.081
rtibia 30.1927
rfoot -10.2271 -7.42023
rtoes 24.4082
lfemur -5.9507 -3.88059 -14.513
ltibia 59.2491
lfoot 24.428 -9.26113
ltoes 6.47794
529
root 0.495406 17.5683 33.4158 -1.01014 6.69266 -2.33366
lowerback 6.2675 -0.845599 -3.20751
upperback 1.06102 -1.22085 4.48815
thorax -2.25218 -0.575003 6.58995
lowerneck -15.4903 -5.52535 -14.3933
upperneck 33.0801 -5.82753 6.17989
head 14.7035 -3.4868 4.03989
rclavicle -8.74653e-015 1.43125e-014
rhumerus -40.5842 -23.9443 -64.2272
rradius 22.834
rwrist -5.68235
rhand -10.0152 18.1687
rfingers 7.12502
rthumb 15.969 -11.1931
lclavicle -8.74653e-015 1.43125e-014
lhumerus -35.1721 5.17724 83.5745
lradius 34.3673
lwrist -6.74398
lhand 1.41517 31.4572
lfingers 7.12502
lthumb 26.9452 59.5561
rfemur -14.9735 0.507667 25.6902
rtibia 30.0658
rfoot -10.9592 -6.87876
rtoes 24.5701
lfemur -6.53927 -3.60732 -15.0815
ltibia 60.8416
lfoot 22.3175 -8.76684
ltoes 2.82019
